<?xml version="1.0" standalone="no"?>
<!DOCTYPE svg PUBLIC "-//W3C//DTD SVG 20010904//EN"
 "http://www.w3.org/TR/2001/REC-SVG-20010904/DTD/svg10.dtd">
<svg version="1.0" xmlns="http://www.w3.org/2000/svg"
 width="200.000000pt" height="200.000000pt" viewBox="0 0 200.000000 200.000000"
 preserveAspectRatio="xMidYMid meet">

<g transform="translate(0.000000,200.000000) scale(0.100000,-0.100000)"
fill="#e4731a" stroke="none">
<path d="M422 1965 c-67 -49 -109 -242 -91 -423 5 -48 13 -99 18 -113 6 -19 3
-46 -10 -95 -26 -96 -26 -235 2 -316 33 -98 83 -160 182 -227 51 -35 58 -55
29 -92 -22 -28 -42 -83 -42 -115 0 -36 -14 -36 -56 -3 -52 41 -89 98 -104 159
-19 80 -53 61 -90 -50 -43 -127 -7 -255 99 -352 53 -48 59 -59 71 -116 25
-121 75 -163 204 -170 45 -2 93 -11 108 -18 38 -19 162 -19 178 1 18 21 216
21 244 0 13 -10 44 -15 91 -15 47 0 78 5 91 15 11 9 42 15 79 15 116 0 172 29
206 105 53 117 45 222 -22 289 -35 34 -39 43 -33 72 8 45 -12 132 -41 176 -14
21 -25 44 -25 52 0 9 24 31 53 49 69 45 133 116 165 185 23 49 27 73 30 170 3
82 -1 133 -13 182 -14 55 -15 79 -6 118 40 190 10 425 -64 499 -19 19 -43 33
-57 33 -46 0 -119 -32 -194 -86 -41 -30 -81 -54 -88 -54 -8 0 -31 7 -51 16
-53 22 -176 44 -243 44 -55 0 -182 -24 -267 -51 -40 -12 -42 -11 -95 30 -111
84 -213 118 -258 86z m173 -80 c28 -18 70 -48 93 -67 l44 -35 71 28 c160 61
378 54 520 -18 26 -13 30 -12 75 26 56 47 160 111 180 111 8 0 -3 -13 -24 -28
-55 -40 -144 -140 -138 -155 3 -7 24 -27 47 -46 109 -87 211 -253 242 -396 25
-113 17 -241 -20 -318 -53 -110 -169 -191 -345 -239 -77 -21 -106 -23 -300
-23 -192 0 -224 3 -299 23 -174 48 -295 134 -349 250 -24 51 -27 68 -27 167 1
127 15 185 78 315 34 70 58 102 134 179 l94 94 -27 39 c-15 21 -50 58 -78 80
-73 59 -74 61 -46 53 14 -4 48 -22 75 -40z m-141 7 c2 -4 -4 -39 -15 -77 -12
-42 -21 -112 -23 -175 -3 -105 -10 -140 -27 -140 -14 0 -10 218 6 292 19 91
41 129 59 100z m1221 -44 c25 -82 36 -195 29 -282 -7 -75 -7 -78 -21 -52 -9
16 -15 68 -17 139 -3 79 -10 130 -24 172 -16 45 -18 61 -9 67 21 14 26 9 42
-44z m-1290 -1266 c20 -23 57 -53 82 -67 l45 -27 -35 -32 c-19 -17 -38 -46
-41 -64 -11 -47 -24 -48 -66 -7 -73 71 -106 206 -71 290 l12 29 19 -41 c10
-22 34 -59 55 -81z m311 46 c45 -15 117 -33 160 -39 43 -6 80 -13 82 -14 1 -1
-2 -15 -8 -30 -24 -64 38 -145 111 -145 76 0 126 59 115 136 l-5 42 77 11 c77
11 226 55 249 73 32 26 58 -55 49 -154 -11 -119 -102 -331 -174 -407 -37 -39
-42 -41 -99 -41 -37 0 -65 5 -71 13 -6 7 -12 67 -13 139 -2 133 -7 155 -33
145 -13 -5 -16 -26 -16 -132 l0 -125 -80 0 -80 0 0 130 c0 120 -1 130 -19 130
-15 0 -19 -11 -25 -61 -3 -34 -6 -96 -6 -138 0 -47 -5 -82 -12 -89 -7 -7 -39
-12 -72 -12 -56 0 -61 2 -96 40 -42 45 -116 191 -150 295 -39 118 -27 289 19
269 9 -4 52 -20 97 -36z m374 22 c0 -16 -7 -20 -30 -20 -23 0 -30 4 -30 20 0
16 7 20 30 20 23 0 30 -4 30 -20z m13 -80 c33 -26 41 -53 26 -82 -27 -51 -70
-61 -113 -27 -36 28 -36 80 0 108 33 26 54 26 87 1z m-466 -393 l42 -77 -38 0
c-90 0 -126 35 -150 149 -12 59 -2 122 27 154 14 16 17 11 46 -65 17 -46 50
-118 73 -161z m977 215 c33 -63 28 -158 -11 -235 -17 -34 -67 -57 -122 -57
l-40 0 34 56 c35 58 105 224 105 249 0 24 18 17 34 -13z"/>
<path d="M629 1417 c-55 -37 -65 -122 -17 -148 55 -30 162 -1 174 46 9 36 -14
84 -50 106 -41 25 -66 24 -107 -4z m96 -37 c8 -26 -1 -40 -26 -40 -22 0 -34
22 -25 45 8 22 44 18 51 -5z"/>
<path d="M1349 1425 c-31 -17 -63 -78 -54 -104 21 -68 163 -90 195 -31 44 82
-60 181 -141 135z m60 -39 c16 -20 3 -46 -24 -46 -13 0 -26 7 -29 16 -7 19 10
44 29 44 7 0 18 -6 24 -14z"/>
<path d="M958 1285 c-52 -29 -45 -81 17 -132 l37 -31 -23 -16 c-44 -30 -76
-18 -123 49 -11 15 -18 17 -26 9 -17 -17 -5 -47 34 -86 18 -18 38 -51 44 -73
13 -46 63 -102 98 -111 13 -3 35 -3 48 0 35 9 85 65 99 110 6 22 29 58 49 78
38 38 48 71 26 84 -7 4 -16 0 -22 -11 -36 -63 -84 -81 -127 -46 l-23 18 31 16
c60 31 81 97 42 133 -28 25 -142 31 -181 9z m145 -292 c13 -12 -36 -53 -63
-53 -31 0 -80 45 -58 53 19 8 114 8 121 0z"/>
</g>
</svg>
