<svg xmlns="http://www.w3.org/2000/svg" viewBox="0 0 1280 1024">
  <path d="M413.719992 490.294302c-71.759166 20.899757-119.898607 82.399042-115.058663 148.198278 22.799735-25.439704 57.61933-47.399449 99.798841-61.839281l15.259822-86.358997zM191.622573 589.993144L128.163311 230.977316c-0.579993-3.239962 0.559993-5.239939 0.479994-5.299939 115.518658-64.119255 246.237138-98.018861 378.015607-98.018861 3.219963 0 6.459925 0.339996 9.699887 0.379996 27.899676-26.939687 63.459263-45.659469 103.178801-51.999396 37.779561-6.03993 76.099116-9.099894 114.358671-10.639876-19.979768-27.899676-48.959431-48.459437-83.539029-53.999372C602.537798 3.779956 554.478356 0 506.638912 0 353.320694 0 202.042452 38.839549 66.404028 114.118674 18.06459 140.958362-7.835109 196.957711 2.104776 253.157058l63.459262 359.015828c28.459669 161.038129 272.656831 284.156698 408.895248 284.156698 7.179917 0 13.499843-0.919989 20.019768-1.599982-27.039686-34.159603-57.879327-80.959059-78.999082-135.158429-95.218893-25.959698-212.117535-103.2388-223.857399-169.578029z m195.097733-274.916806c-1.459983-8.239904-4.459948-15.739817-8.139905-22.799735-16.499808 17.819793-41.33952 31.499634-70.63918 36.639575-29.29966 5.15994-57.339334 0.799991-78.959082-10.33988-1.039988 7.879908-1.279985 15.959815 0.179998 24.199719 7.679911 43.399496 49.159429 72.379159 92.678923 64.739247 43.499494-7.639911 72.559157-49.03943 64.879246-92.438926zM1213.590697 241.79719c-177.957932-98.758852-382.855551-134.818433-583.953214-102.698806-54.619365 8.719899-98.158859 52.51939-108.078744 108.718736l-63.459263 359.015828c-30.779642 174.097977 190.557786 392.535438 316.616321 414.695181 126.058535 22.179742 408.935248-107.57875 439.71489-281.676727l63.459263-359.015828c9.939884-56.219347-15.959815-112.218696-64.299253-139.038384z m-546.47365 193.59775c7.679911-43.399496 49.159429-72.379159 92.678923-64.719248 43.519494 7.659911 72.559157 49.03943 64.899246 92.438926-1.459983 8.239904-4.459948 15.739817-8.139905 22.799735-16.499808-17.819793-41.33952-31.499634-70.639179-36.639574-29.29966-5.15994-57.339334-0.799991-78.959083 10.33988-1.059988-7.899908-1.299985-15.979814 0.159998-24.219719z m140.938363 397.515381c-111.358706-19.579772-187.037826-118.538622-178.077931-225.797376 41.199521 51.079406 112.418694 92.338927 198.977688 107.55875 86.558994 15.219823 167.638052 0.739991 223.857398-33.199614-28.35967 103.878793-133.41845 171.018013-244.757155 151.43824z m260.596971-302.676483c-16.499808-17.819793-41.359519-31.499634-70.659179-36.639574-29.29966-5.15994-57.339334-0.799991-78.959082 10.33988-1.039988-7.879908-1.279985-15.959815 0.179998-24.199719 7.679911-43.399496 49.159429-72.379159 92.678923-64.739248 43.499494 7.659911 72.559157 49.03943 64.899246 92.438926-1.459983 8.259904-4.459948 15.759817-8.139906 22.799735z" fill="" p-id="8874"></path>
</svg>
